# xmcd
#
# Track frame offsets: 
#        150
#        14922
#        28148
#        40019
#        54161
#        64860
#        77335
#        88424
#        99501
#        111047
#        122438
#        132871
#        147006
#        158227
#        170946
#        186191
#        194819
#        208781
#        219035
#        231067
#        242364
#        254470
#        266533
#        278517
#        293033
#
# Disc length: 4065 seconds
#
# Revision: 0
# Processed by: cddbd v1.5.2PL0 Copyright (c) Steve Scherf et al.
# Submitted via: ExactAudioCopy v1.0b3
#
DISCID=650fdf19
DTITLE=Various Artist - The R and B Years 1951 Disk 2
DYEAR=1900
DGENRE=R&B
TTITLE0=Billy Wright - Keep Your Hand On Your Heart
TTITLE1=Big Jay McNeely - All That Wine Is Gone
TTITLE2=Amos Milburn - Let's Rock A While
TTITLE3=Johnny Otis/Mel Walker - Gee Baby
TTITLE4=Lloyd Glenn - Chica Boo
TTITLE5=Amos Milburn - Tears, Tears, Tears
TTITLE6=James Waynes - Tend To Your Business
TTITLE7=Wynonie Harris - Tremblin'
TTITLE8=Lucky Millinder - Chew Tobacco Rag
TTITLE9=Margie Day/Griffin Brothers - Sadie Green
TTITLE10=Fats Domino - Don't Lie To Me
TTITLE11=Roy Brown - Wrong Woman Blues
TTITLE12=Louis Jordan - Weak Minded Blues
TTITLE13=Jackie Brenston - Rocket 88
TTITLE14=Calvin Boze - Slippin' and slidin'
TTITLE15=Tiny Bradshaw - Two Dry Bones On A Pantry Shelf
TTITLE16=Eddie Vinson - Featherbed Mama
TTITLE17=Smiley Lewis - My Baby Was Right
TTITLE18=Stick McGhee - One Monkey Don't Stop No Show
TTITLE19=The Dominos - Sixty Minute Man
TTITLE20=Piano Red - The Wrong Yo Yo
TTITLE21=Roy Milton - It's Later Than You Think
TTITLE22=Pee Wee Crayton - Poppa Stoppa
TTITLE23=The Clovers - Don't You Know I Love You
TTITLE24=Annisteen Allen/Lucky Millinder - I'm Waiting Just For You
EXTD=
EXTT0=
EXTT1=
EXTT2=
EXTT3=
EXTT4=
EXTT5=
EXTT6=
EXTT7=
EXTT8=
EXTT9=
EXTT10=
EXTT11=
EXTT12=
EXTT13=
EXTT14=
EXTT15=
EXTT16=
EXTT17=
EXTT18=
EXTT19=
EXTT20=
EXTT21=
EXTT22=
EXTT23=
EXTT24=
PLAYORDER=
